<?xml version="1.0" encoding="utf-8"?>
<!-- Generator: Adobe Illustrator 26.5.0, SVG Export Plug-In . SVG Version: 6.00 Build 0)  -->
<svg version="1.1" id="Calque_1" xmlns="http://www.w3.org/2000/svg" xmlns:xlink="http://www.w3.org/1999/xlink" x="0px" y="0px"
	 viewBox="0 0 17.7 17.7" style="enable-background:new 0 0 17.7 17.7;" xml:space="preserve">
<g>
	<polygon points="7.7,1.7 7.7,1.7 7.7,1.7 	"/>
	<path d="M16.5,0L7.7,1.7l7.2-0.3c0,0,1.4,0,1.4,1.2l-0.1,8.2L17.6,1C17.8-0.2,16.5,0,16.5,0z"/>
	<path d="M15.6,5.7V3.4c0-1.3-1.2-1.2-1.2-1.2H7.6c0,0-7.1,0.2-7.6,7.6c0.1,4.8,3.3,6.7,5,7.3c0,0,0,0,0,0c0.2,0.1,0.5,0.2,0.8,0.3
		c0,0,0,0,0,0c0,0,0,0,0,0c4.8,1.4,9.8-2.7,9.8-6.8c0-0.1,0-0.2,0-0.4V6c0,0,0,0,0,0v0C15.6,6,15.6,5.7,15.6,5.7z M2.9,15.3v-4.3
		c0-0.1,0-0.1,0-0.2c0-0.1,0-0.1,0-0.2C3,9.2,4.3,7.9,6,7.9s3,1.4,3,3c0,1.7-1.4,3-3,3c-0.1,0-0.2,0-0.3,0v3
		C3.6,16.3,2.9,15.3,2.9,15.3z"/>
</g>
</svg>
