<?xml version="1.0" encoding="utf-8"?>
<!-- Generator: Adobe Illustrator 25.4.1, SVG Export Plug-In . SVG Version: 6.00 Build 0)  -->
<svg version="1.1" id="Calque_1" xmlns="http://www.w3.org/2000/svg" xmlns:xlink="http://www.w3.org/1999/xlink" x="0px" y="0px"
	 viewBox="0 0 200 200.8" style="enable-background:new 0 0 200 200.8;" xml:space="preserve">
<g>
	<path d="M87.4,19.4L87.4,19.4L87.4,19.4z"/>
	<path d="M187.3,0.1L87.4,19.4l81.7-3.4c0,0,15.9,0,15.9,13.6l-1.1,93.1l15.9-111.2C202-2.1,187.3,0.1,187.3,0.1z"/>
	<path d="M177.1,64.8V38.7c0-14.8-13.6-13.6-13.6-13.6H86.3c0,0-80.6,2.3-86.3,86.3c1.1,54.5,37.5,76,56.8,82.9l0,0
		c2.3,1.1,5.7,2.3,9.1,3.4l0,0l0,0c54.5,15.9,111.2-30.6,111.2-77.2c0-1.1,0-2.3,0-4.5V68.2l0,0l0,0V64.8z M32.9,173.8V125
		c0-1.1,0-1.1,0-2.3c0-1.1,0-1.1,0-2.3c1.1-15.9,15.9-30.6,35.2-30.6s34.1,15.9,34.1,34.1c0,19.3-15.9,34.1-34.1,34.1
		c-1.1,0-2.3,0-3.4,0V192C40.9,185.1,32.9,173.8,32.9,173.8z"/>
</g>
</svg>
