<?xml version="1.0" encoding="utf-8"?>
<!-- Generator: Adobe Illustrator 26.5.0, SVG Export Plug-In . SVG Version: 6.00 Build 0)  -->
<svg version="1.1" id="Calque_1" xmlns="http://www.w3.org/2000/svg" xmlns:xlink="http://www.w3.org/1999/xlink" x="0px" y="0px"
	 viewBox="0 0 183.2 60.4" style="enable-background:new 0 0 183.2 60.4;" xml:space="preserve">
<g>
	<polygon points="24.3,10.6 24.3,10.6 24.3,10.6 	"/>
	<path d="M51.4,5.5l-27.2,5.1l22.2-1.1c0,0,4.4-0.1,4.3,3.7l-0.4,25.3L55,8.6C55.6,4.7,51.4,5.5,51.4,5.5z"/>
	<path d="M59.6,7c0,0.1,0.1,0.2,0.1,0.3c0,0.1,0.1,0.2,0.1,0.2c0,0,0,0,0,0.1c0,0.1,0,0.1,0,0.2c0,0.1,0,0.2,0,0.2
		c0,0.1,0,0.2,0,0.2v0.9c0,0,0,0.1,0,0.1c0,0.1,0,0.1,0.1,0.2c0,0.1,0,0.1,0.1,0.2c0,0.1,0,0.1,0,0.1c0,0,0,0.1,0.1,0.1
		c0,0,0.1,0.1,0.1,0.2s0.1,0.1,0.1,0.2c0,0,0.1,0.1,0.1,0.1c0,0,0,0.1,0.1,0.1c0,0,0.1,0.1,0.2,0.2c0.1,0.1,0.1,0.1,0.2,0.2
		c0.1,0.1,0.1,0.1,0.1,0.1c0.1,0,0.2,0.1,0.2,0.1c0.1,0,0.2,0.1,0.4,0.2h1.1c0,0,0.1,0,0.1-0.1S63,11,63,11c0,0,0-0.1,0-0.2
		c0-0.1,0-0.1,0-0.2c-0.1,0.1-0.2,0.1-0.4,0.1c-0.2,0-0.3-0.1-0.5-0.1c-0.2-0.1-0.3-0.2-0.4-0.3c-0.1-0.1-0.2-0.3-0.3-0.4
		c0,0,0-0.1-0.1-0.1c0-0.1,0-0.1,0-0.1c-0.1-0.5-0.2-0.9-0.2-1.3c0-0.4,0-0.8,0.2-1.3c0,0,0.1-0.1,0.1-0.2c0-0.1,0.1-0.2,0.1-0.2
		c0,0,0,0,0.1-0.1c0,0,0.1-0.1,0.2-0.1c0.1,0,0.1-0.1,0.2-0.1c0.1,0,0.1-0.1,0.1-0.1c0,0,0.1,0,0.2-0.1c0.1,0,0.2-0.1,0.2-0.1
		c0.2-0.1,0.4-0.3,0.6-0.5c0.2-0.2,0.3-0.4,0.5-0.6c0.1-0.2,0.2-0.5,0.3-0.7C63.9,3.9,64,3.6,64,3.4V1.7c0,0,0-0.1,0-0.1
		c0-0.1,0-0.1-0.1-0.1c0,0-0.1-0.1-0.1-0.1c0,0-0.1-0.1-0.1-0.1c0,0-0.1-0.1-0.1-0.1c0,0-0.1-0.1-0.1-0.1H63c0,0,0,0-0.1,0
		c0,0-0.1,0-0.1,0.1c0,0-0.1,0-0.1,0.1c0,0-0.1,0.1-0.1,0.1c0,0,0,0.1-0.1,0.2c-0.1,0.1-0.1,0.2-0.1,0.3c0,0,0,0,0,0.1
		c0,0,0,0.1,0,0.1c0,0-0.1,0.1-0.1,0.2C62.1,2.1,62,2.2,62,2.3c-0.1,0.1-0.1,0.2-0.2,0.2c0,0.1-0.1,0.1-0.1,0.2c0,0,0,0,0,0.1
		c0,0,0,0-0.1,0.1c0,0.1-0.1,0.2-0.2,0.4c-0.1,0.2-0.2,0.4-0.3,0.6C61,4,60.9,4.2,60.8,4.4c-0.1,0.2-0.2,0.3-0.2,0.4c0,0,0,0,0,0.1
		c0,0.1,0,0.1-0.1,0.1c0,0,0,0.1,0,0.1c0,0.1,0,0.1-0.1,0.2s0,0.1-0.1,0.2c0,0.1,0,0.1,0,0.1c0,0,0,0.1-0.1,0.3l0,0
		C60.2,6,60.1,6.1,60,6.1c-0.1,0-0.2,0.1-0.3,0.1c-0.1,0-0.2,0.1-0.2,0.2c-0.1,0.1-0.1,0.1-0.1,0.3c0,0,0,0.1,0,0.1
		C59.5,6.9,59.6,6.9,59.6,7z M61.9,5C61.9,5,61.9,4.9,61.9,5c0.2-0.5,0.4-0.9,0.5-1.2c0.1-0.3,0.3-0.6,0.4-0.7l0.4-0.4
		c0,0,0,0,0.1,0c0,0,0,0,0.1,0c0,0.1,0,0.1,0,0.3c0,0.1,0,0.2,0,0.4c0,0.1,0,0.3-0.1,0.4c0,0.1-0.1,0.2-0.1,0.3
		c-0.1,0.3-0.2,0.5-0.4,0.8c-0.2,0.2-0.5,0.4-0.7,0.5c0,0,0,0,0-0.1V5z"/>
	<path d="M64.5,9.5c0,0,0,0.1,0.1,0.1c0,0.1,0.1,0.1,0.1,0.1c0,0,0,0.1,0.1,0.1c0.1,0.1,0.1,0.1,0.2,0.2s0.2,0.2,0.2,0.3
		c0.1,0.1,0.1,0.1,0.2,0.2l0.2,0.2c0,0,0.1,0,0.1,0.1c0,0,0.1,0.1,0.2,0.1s0.1,0.1,0.2,0.1c0,0,0.1,0,0.1,0.1c0,0,0.1,0,0.2,0
		c0.1,0,0.2,0,0.3,0.1c0.1,0,0.2,0,0.3,0c0.1,0,0.2,0,0.2,0h0.9c0.2,0,0.4,0,0.6-0.1c0,0,0.1,0,0.2-0.1c0.1,0,0.1-0.1,0.1-0.1
		c0,0,0,0,0.1-0.1c0,0,0.1,0,0.1-0.1c0.1-0.3,0.1-0.5,0-0.7c-0.1-0.1-0.2-0.2-0.3-0.2c-0.1,0-0.2,0-0.3,0.1c-0.1,0-0.3,0.1-0.4,0.1
		c-0.1,0-0.3,0.1-0.5,0.1c-0.2,0-0.3,0-0.4,0c0,0-0.1,0-0.1,0c-0.1,0-0.1,0-0.2,0c-0.1,0-0.1,0-0.2,0c-0.1,0-0.1,0-0.1,0
		c-0.2-0.1-0.4-0.3-0.4-0.5c0-0.1,0-0.2,0-0.2s0-0.1,0-0.2c0,0,0,0,0.1-0.1c0,0,0.1-0.1,0.1-0.1c0.1-0.1,0.2-0.2,0.3-0.3
		c0.1-0.1,0.2-0.1,0.2-0.2c0.1-0.1,0.2-0.2,0.2-0.2c0.1-0.1,0.2-0.2,0.3-0.4c0,0,0,0,0.1-0.1c0,0,0-0.1,0-0.1c0-0.1,0.1-0.2,0.1-0.3
		c0-0.1,0.1-0.2,0.1-0.2c0,0,0-0.1,0-0.2V6.5c0-0.1,0-0.2,0-0.2c0,0,0-0.1,0-0.2c0-0.1,0-0.2-0.1-0.2c0,0,0-0.1-0.1-0.2
		c0-0.1-0.1-0.2-0.1-0.2c0,0,0-0.1,0-0.1c0,0-0.1-0.1-0.1-0.2c0,0-0.1-0.1-0.1-0.1C67,5,67,5,67,5c0,0,0-0.1-0.1-0.1
		c0-0.1-0.1-0.1-0.1-0.1c0,0-0.1-0.1-0.1-0.2c-0.1-0.1-0.1-0.1-0.1-0.1c0,0,0,0-0.1,0c0,0-0.1,0-0.2-0.1c-0.1,0-0.1,0-0.2-0.1
		c-0.1,0-0.1,0-0.1,0c0,0,0,0-0.1,0h-0.1c0,0,0,0-0.1,0c0,0-0.1,0-0.2,0.1c-0.1,0-0.2,0.1-0.2,0.1c-0.2,0.2-0.4,0.5-0.6,0.7
		c-0.1,0.3-0.3,0.5-0.3,0.8c-0.1,0.3-0.1,0.6-0.2,0.9c0,0.3-0.1,0.6-0.1,1l0,0L64.5,9.5L64.5,9.5z M65.5,7.9c0-0.1,0-0.2,0-0.3
		c0-0.1,0-0.2,0-0.3c0-0.1,0-0.2,0-0.2c0,0,0,0,0-0.1c0,0,0-0.1,0.1-0.2c0-0.1,0-0.1,0.1-0.2c0-0.1,0-0.1,0-0.1c0,0,0.1-0.1,0.1-0.2
		c0-0.1,0.1-0.2,0.1-0.2c0.1-0.2,0.2-0.4,0.4-0.5v0c0,0,0.1,0.1,0.1,0.2C66.4,6,66.5,6,66.6,6.1c0.1,0.1,0.1,0.2,0.2,0.3
		c0.1,0.1,0.1,0.1,0.1,0.2c0,0,0.1,0.1,0.1,0.2C67,6.9,67,6.9,67,6.9c0,0,0,0,0,0.1c0,0,0,0.1,0,0.1s0,0,0,0.1c0,0,0,0,0,0.1
		c0,0-0.1,0.1-0.2,0.2c-0.1,0.1-0.2,0.2-0.2,0.2c0,0-0.1,0-0.1,0.1c-0.1,0-0.1,0.1-0.2,0.1c-0.1,0-0.1,0.1-0.2,0.1C66,8,66,8,65.9,8
		c0,0-0.1,0-0.1,0c-0.1,0-0.1,0-0.1,0.1h-0.1C65.5,8.1,65.5,8,65.5,7.9z"/>
	<path d="M78.7,11.4c0,0,0.1,0.1,0.1,0.1c0.1,0,0.1,0.1,0.1,0.1c0,0,0.1,0.1,0.1,0.1c0.1,0,0.2,0.1,0.3,0.1c0.1,0,0.2,0,0.4,0.1
		c0.1,0,0.2,0,0.4,0c0.1,0,0.2,0,0.3,0c0.1,0,0.2,0,0.3-0.1c0.1-0.1,0.2-0.1,0.3-0.2c0.1-0.1,0.2-0.1,0.3-0.2
		c0.1-0.1,0.2-0.1,0.3-0.1c0,0,0,0,0.1,0c0.1,0,0.1,0,0.2,0c0.1,0,0.1,0,0.2,0c0.1,0,0.1,0,0.1,0c0.1,0,0.3-0.1,0.5-0.2
		c0.2-0.1,0.4-0.1,0.6-0.2s0.4-0.1,0.5-0.2c0.2-0.1,0.3-0.1,0.4-0.2c0,0,0.1,0,0.1-0.1c0.1,0,0.1,0,0.2-0.1c0.1,0,0.1,0,0.2-0.1
		c0,0,0,0,0,0c0,0.2,0,0.3,0,0.4c0.1,0.4,0.3,0.6,0.6,0.6c0,0,0.1,0,0.1,0c0,0,0.1,0,0.1,0c0,0,0,0,0-0.1c0,0,0-0.1,0-0.1l0-0.1l0,0
		c0,0,0,0,0-0.1c0,0,0-0.1,0-0.1c0.4-1,0.5-2,0.4-3c0.1-0.2,0.1-0.4,0.2-0.6s0.1-0.2,0.2-0.3c0.1-0.1,0.1-0.1,0.2-0.2
		c0,0,0.1-0.1,0.2-0.2l0.1,0c0.1,0,0.2-0.1,0.3-0.1c0.1,0,0.3-0.1,0.4-0.1c0.1,0,0.3-0.1,0.5-0.1l0.1,0l0.2-0.1l0.2-0.1L89,6
		c0,0,0,0,0.1-0.1c0.1-0.1,0.1-0.1,0.2-0.2c0,0,0,0,0,0c0,0,0,0,0,0l-0.1-0.3l-0.1-0.3c0,0,0,0-0.1,0c0,0-0.1,0-0.1,0
		c0,0,0,0-0.1-0.1c0,0-0.1-0.1-0.1-0.1c0,0-0.1,0-0.2-0.1c-0.1,0-0.2-0.1-0.2-0.1h-0.3c-0.1,0-0.2,0-0.2,0c-0.1,0-0.1,0-0.1,0
		c-0.3,0.1-0.6,0.1-0.7,0.1c-0.2,0-0.4,0.1-0.5,0.1c-0.2,0-0.2,0-0.3,0c0,0-0.1,0-0.2,0.1c-0.1,0-0.1,0-0.1,0c0,0-0.1,0.1-0.1,0.1
		c-0.1,0-0.1,0.1-0.1,0.1l-0.3,0.4c0,0,0,0,0,0.1c0,0,0,0.1,0,0.1V6c0,0,0,0.1,0,0.2c0,0.1,0,0.1,0,0.2c0,0,0,0.1,0,0.1
		c0,0,0,0.1-0.1,0.2s0,0.2-0.1,0.3c0,0.1,0,0.2-0.1,0.3c0,0.1,0,0.1-0.1,0.1c0,0-0.1,0.2-0.1,0.3c0,0.2-0.1,0.3-0.1,0.5
		C85.1,8.5,85,8.7,85,9c0,0.2,0,0.4-0.1,0.5c0,0,0-0.1,0-0.1c-0.1-0.1-0.2-0.2-0.4-0.2c-0.2,0-0.4,0.1-0.5,0.2
		c-0.2,0.1-0.4,0.2-0.5,0.2c0,0-0.1,0-0.1,0.1c-0.1,0-0.1,0-0.1,0c0,0,0,0,0-0.1c0,0,0,0,0-0.1V9.6c0,0,0-0.1,0.1-0.2
		c0-0.1,0-0.1,0-0.2c0,0,0-0.1,0-0.2c0-0.1,0-0.2,0-0.3c0-0.3-0.1-0.6-0.2-1c-0.1-0.4-0.3-0.7-0.5-0.9c-0.2-0.2-0.4-0.4-0.6-0.7
		c-0.2-0.2-0.4-0.5-0.6-0.7c-0.2-0.2-0.4-0.4-0.6-0.6c-0.2-0.2-0.4-0.3-0.7-0.4c-0.2-0.1-0.4-0.1-0.7,0S78.8,4.7,78.6,5
		c0,0,0,0-0.1,0.1c0,0,0,0.1-0.1,0.1v0.2c0,0,0,0.1,0.1,0.1c0,0.1,0,0.1,0,0.1c0,0,0,0,0,0.1c0,0.1,0,0.1,0,0.1
		c-0.2,0.2-0.3,0.4-0.4,0.5c-0.1,0.1-0.1,0.3-0.2,0.6c-0.1,0.6-0.3,1.3-0.3,2.2c-0.1,0.8-0.2,1.7-0.3,2.6c-0.2,1.5-0.4,2.8-0.6,3.9
		c-0.2,1.1-0.4,1.9-0.5,2.5c0,0,0,0.1,0,0.1c0,0,0,0.1,0,0.2c0,0.1,0,0.1,0,0.2c0,0,0,0.1,0,0.1c0,0,0,0.1,0,0.2s0,0.2,0,0.2
		c0,0,0,0.1,0,0.1l0,0c0,0.1,0,0.1,0.1,0.1c0,0,0,0.1,0.1,0.2c0,0.1,0.1,0.1,0.1,0.1c0,0,0,0,0.1,0c0,0,0.1,0,0.1,0
		c0,0,0.1-0.1,0.1-0.2c0-0.1,0.1-0.1,0.1-0.2c0-0.1,0.1-0.1,0.1-0.2c0,0,0-0.1,0-0.1c0-0.1,0-0.1,0-0.2c0.2-1,0.4-1.8,0.5-2.5
		c0.1-0.7,0.2-1.3,0.3-1.9c0.1-0.5,0.2-1.1,0.2-1.5c0.1-0.5,0.2-1,0.3-1.5c0,0,0,0,0.1-0.1c0-0.1,0-0.1,0.1-0.1
		C78.6,11.3,78.6,11.3,78.7,11.4C78.7,11.3,78.7,11.3,78.7,11.4z M79.8,10.8C79.8,10.8,79.8,10.8,79.8,10.8c-0.1,0-0.2,0-0.2,0
		c0,0,0,0,0,0h0c0,0,0,0,0-0.1c0,0,0,0,0.1-0.1c0,0,0,0,0.1,0c0,0,0.1,0,0.1,0c0,0,0,0,0.1,0c0,0,0,0,0,0.1
		C79.9,10.8,79.9,10.8,79.8,10.8z M79.1,8.8C79.1,8.7,79.1,8.7,79.1,8.8c0-0.1,0-0.2,0-0.3c0-0.1,0-0.1,0-0.2c0,0,0-0.1,0-0.1V7.6
		c0,0,0-0.2,0-0.3c0-0.2,0-0.3,0-0.4c0-0.1,0-0.2,0.1-0.3c0-0.1,0-0.2,0.1-0.3c0-0.1,0-0.1,0.1-0.1h0.3c0,0,0.1,0,0.1,0
		c0.1,0,0.1,0,0.1,0.1c0.3,0.2,0.5,0.4,0.8,0.6c0.3,0.2,0.5,0.4,0.7,0.6S81.9,8,82,8.2c0.1,0.3,0.2,0.6,0.2,1c0,0.1,0,0.1,0,0.1
		c0,0,0,0.1-0.1,0.2c-0.1,0.1-0.1,0.1-0.1,0.1c0,0-0.1,0-0.2,0c-0.1,0-0.2,0-0.2,0c0,0,0,0-0.1,0c0,0-0.1,0-0.2-0.1
		c-0.1,0-0.1,0-0.2-0.1v0c-0.1,0-0.1,0-0.2,0c0,0-0.1,0-0.1,0c0,0-0.1,0-0.2-0.1s-0.1,0-0.2-0.1c-0.1,0-0.1,0-0.1-0.1
		c0,0-0.1,0-0.2-0.1c-0.1,0-0.2,0-0.2,0c0,0,0,0-0.1-0.1s-0.1,0-0.1,0s-0.1,0-0.1,0c-0.1,0-0.1,0-0.2,0c-0.1,0-0.1,0-0.2,0
		c0,0-0.1,0-0.1,0c0,0,0,0-0.1,0C79.1,8.9,79.1,8.9,79.1,8.8L79.1,8.8z"/>
	<polygon points="84.9,10.6 84.9,10.6 84.9,10.6 	"/>
	<path d="M91.3,3.1c0,0.1,0,0.1,0,0.1c0,0,0,0,0.1,0.1c0,0.1,0.1,0.1,0.1,0.1c0,0,0,0,0,0.1c0,0,0,0,0,0c0,0,0.1,0,0.1,0
		c0,0,0,0,0.1,0c0,0,0,0,0.1,0c0,0,0.1,0,0.1-0.1c0,0,0.1-0.1,0.2-0.1c0.1-0.1,0.1-0.1,0.2-0.1c0,0,0,0,0-0.1c0-0.1,0-0.1,0.1-0.2
		c0-0.1,0-0.1,0.1-0.2c0-0.1,0-0.1,0-0.1c0,0,0-0.1,0.1-0.2s0.1-0.2,0.1-0.2c0,0,0-0.1,0.1-0.1c0-0.1,0.1-0.1,0.1-0.1
		c0,0,0-0.1,0.1-0.2C93,1.7,93,1.7,93,1.6c0,0,0.1-0.1,0.2-0.2c0.1-0.1,0.2-0.2,0.2-0.2c0,0,0,0,0.1,0c0,0,0.1,0,0.1,0
		c0,0,0,0,0.1-0.1V0.5c0,0,0,0-0.1-0.1c0,0-0.1,0-0.1,0h-0.5c0,0-0.1,0-0.3,0.1c-0.1,0-0.2,0.1-0.3,0.1c0,0-0.1,0-0.2,0.1
		c-0.1,0.1-0.2,0.1-0.2,0.2c0,0-0.1,0.1-0.1,0.1c-0.1,0.1-0.1,0.1-0.1,0.1c0,0,0,0.1-0.1,0.2c0,0.1-0.1,0.2-0.1,0.2
		c0,0,0,0.1-0.1,0.1c0,0.1,0,0.1,0,0.1c0,0,0,0,0,0.1c0,0,0,0.1,0,0.1c0,0.1,0,0.1,0,0.1c0,0,0,0.1,0,0.1c0,0,0,0.1-0.1,0.1
		c0,0.1,0,0.1,0,0.1c0,0,0,0.1,0,0.2h0V3.1z"/>
	<path d="M94.5,9.2C94.5,9.2,94.5,9.2,94.5,9.2c-0.1,0.1-0.2,0.1-0.2,0.1c0,0-0.1,0-0.1,0.1c-0.1,0-0.1,0-0.1,0c0,0,0,0-0.1,0
		c0,0-0.1,0-0.1,0c0,0-0.1,0-0.1,0c0,0-0.1,0-0.1,0c0,0-0.1,0-0.2,0.1c-0.1,0-0.1,0-0.1,0c0,0-0.1,0-0.1,0.1c-0.1,0-0.1,0.1-0.1,0.1
		c0,0-0.1,0-0.1,0c0,0-0.1,0-0.1,0c0,0-0.1,0-0.2,0c-0.1,0-0.2,0-0.3,0.1c-0.1,0-0.2,0-0.3,0.1c-0.1,0-0.2,0-0.2,0
		c-0.1,0-0.2,0-0.3,0c-0.1,0-0.3,0-0.4,0.1c-0.1,0-0.3,0-0.4,0.1c-0.1,0-0.2,0-0.2,0c0,0-0.1,0-0.2,0c-0.1,0-0.2,0-0.2,0
		c0,0-0.1,0-0.2,0c-0.1,0-0.2,0-0.2,0c0,0-0.1,0-0.2,0c-0.1,0-0.1,0-0.2-0.1c0,0-0.1,0-0.1-0.1c-0.1-0.1-0.1-0.1-0.1-0.1V9.7
		c0,0,0.1-0.1,0.1-0.1c0,0,0.1-0.1,0.1-0.1c0,0,0.1,0,0.2-0.1c0.1,0,0.2-0.1,0.2-0.1c0,0,0,0,0.1,0c0.1,0,0.1,0,0.2-0.1
		c0.1,0,0.1,0,0.2-0.1c0,0,0.1,0,0.1,0c0,0,0.1,0,0.2-0.1c0.1,0,0.2-0.1,0.3-0.1c0.1,0,0.2-0.1,0.3-0.1c0.1,0,0.1-0.1,0.2-0.1
		c0,0,0.1,0,0.1-0.1c0.1,0,0.1,0,0.1,0c0,0,0.1,0,0.2-0.1c0.1,0,0.2,0,0.2-0.1c0,0,0.1,0,0.1,0c0,0,0.1,0,0.1-0.1
		c0,0,0.1-0.1,0.2-0.2c0.1-0.1,0.1-0.1,0.2-0.2c0,0,0,0,0-0.1c0,0,0.1-0.1,0.1-0.2c0-0.1,0.1-0.1,0.1-0.2c0-0.1,0-0.1,0.1-0.1
		c0,0,0-0.1,0.1-0.1c0-0.1,0-0.1,0-0.1c0,0,0-0.1,0-0.1c0-0.1,0-0.1,0-0.2c0,0,0-0.1,0-0.3c0,0,0-0.1-0.1-0.2c0-0.1-0.1-0.2-0.1-0.2
		c0,0,0,0-0.1-0.1c0,0-0.1-0.1-0.1-0.1S92.3,6,92.2,5.9c0,0-0.1-0.1-0.1-0.1c0,0,0,0-0.1-0.1c0,0-0.1-0.1-0.1-0.1
		c0,0-0.1-0.1-0.1-0.1c0,0-0.1,0-0.1-0.1c0,0,0,0-0.1,0c-0.1,0-0.1,0-0.1-0.1c0,0-0.1,0-0.2-0.1c-0.1,0-0.1,0-0.2,0h-0.5
		c0,0-0.1,0-0.1,0c-0.1,0-0.1,0-0.1,0.1c0,0-0.1,0-0.1,0.1c-0.1,0-0.1,0.1-0.2,0.1c-0.1,0-0.1,0.1-0.2,0.1c0,0-0.1,0-0.1,0.1
		c0,0,0,0-0.1,0.1c0,0-0.1,0.1-0.1,0.1c0,0-0.1,0.1-0.1,0.1c0,0-0.1,0.1-0.1,0.1c0,0-0.1,0-0.1,0.1C89,6.3,89,6.3,89,6.3l-0.1,0.1
		c0,0,0,0,0,0.1c0,0,0,0.1-0.1,0.1c0,0,0,0.1-0.1,0.1c0,0,0,0.1,0,0.1c0,0,0,0-0.1,0.1c0,0.1-0.1,0.1-0.1,0.2c0,0.1-0.1,0.1-0.1,0.2
		c0,0.1-0.1,0.1-0.1,0.1c-0.1,0.2-0.2,0.4-0.3,0.7c-0.1,0.2-0.1,0.5-0.2,0.7c0,0,0,0.1,0,0.2c0,0.1,0,0.2,0,0.2l0,0v0.1
		c0,0.1,0,0.1,0,0.2c0,0.1,0,0.2,0.1,0.3c0,0.1,0,0.2,0.1,0.2c0,0.1,0,0.1,0,0.1c0,0,0,0.1,0.1,0.2c0.1,0.1,0.1,0.2,0.1,0.2
		c0,0,0.1,0.1,0.1,0.1c0,0,0.1,0.1,0.1,0.1c0,0,0.1,0.1,0.1,0.1c0,0,0.1,0.1,0.1,0.1c0,0,0,0,0.1,0c0,0,0.1,0,0.1,0c0,0,0.1,0,0.2,0
		c0.1,0,0.2,0,0.2,0c0,0,0.1,0,0.2,0c0.1,0,0.2,0,0.3,0c0.1,0,0.2,0,0.3,0c0.1,0,0.2,0,0.2,0h0.4c0,0,0.1,0,0.1,0c0.1,0,0.1,0,0.2,0
		c0.1,0,0.2,0,0.2,0c0.1,0,0.1,0,0.1,0c0,0,0.1,0,0.2,0c0.1,0,0.2,0,0.2,0c0,0,0,0,0.1,0c0,0,0.1,0,0.1-0.1c0,0,0.1,0,0.1-0.1
		c0,0,0.1,0,0.1,0c0,0,0,0,0.1,0c0.1,0,0.1,0,0.2,0c0.1,0,0.1,0,0.2,0c0.1,0,0.1,0,0.1,0c0,0,0,0,0.1,0c0,0,0.1,0,0.1-0.1
		c0,0,0.1,0,0.1-0.1c0,0,0.1,0,0.1,0c0,0,0.1,0,0.2-0.1c0.1,0,0.1,0,0.1,0c0,0,0,0,0.1,0c0,0,0,0,0,0.1l0.1-0.2c0,0,0.1-0.1,0.1-0.2
		c0-0.1,0.1-0.1,0.1-0.1c0,0,0,0,0.1-0.1c0,0,0.1-0.1,0.1-0.1c0.1,0,0.1-0.1,0.1-0.1c0,0,0.1,0,0.1-0.1c0,0,0.1-0.1,0.2-0.2
		c0.1-0.1,0.2-0.2,0.2-0.2c0,0,0,0,0-0.1C94.6,9.3,94.6,9.3,94.5,9.2C94.6,9.2,94.6,9.2,94.5,9.2c0.1,0,0.1,0,0.1,0
		C94.6,9.1,94.6,9.1,94.5,9.2C94.6,9.2,94.6,9.2,94.5,9.2z M89.6,7.9C89.6,7.9,89.6,7.8,89.6,7.9c0-0.1,0.1-0.2,0.1-0.3
		c0-0.1,0.1-0.1,0.1-0.2c0,0,0,0,0.1-0.1c0,0,0.1-0.1,0.1-0.1c0,0,0.1-0.1,0.1-0.1c0,0,0.1-0.1,0.1-0.1c0,0,0.1-0.1,0.1-0.1l0,0
		c0-0.1,0.1-0.1,0.1-0.1c0,0,0.1,0,0.2,0c0.1,0,0.2,0,0.3,0c0.1,0,0.2,0,0.3,0c0.1,0,0.2,0,0.2,0c0,0,0.1,0,0.1,0c0,0,0.1,0,0.1,0.1
		v0.3c0,0,0,0,0,0.1c0,0,0,0.1-0.1,0.1c0,0-0.1,0.1-0.1,0.1c0,0-0.1,0-0.1,0.1c0,0-0.1,0-0.1,0.1c-0.1,0-0.1,0.1-0.2,0.1
		c-0.1,0-0.1,0.1-0.2,0.1c-0.1,0-0.1,0-0.1,0.1c0,0-0.1,0-0.1,0.1c-0.1,0-0.1,0-0.1,0c0,0-0.1,0-0.1,0c-0.1,0-0.1,0-0.2,0
		s-0.2,0-0.2,0C89.7,7.9,89.6,7.9,89.6,7.9L89.6,7.9z"/>
	<path d="M98.5,11.1c0.1,0,0.2,0,0.3,0c0.1,0,0.2,0,0.3,0c0.1,0,0.2,0,0.2,0c0,0,0,0,0.1,0c0.1,0,0.1,0,0.1,0c0,0,0.1,0,0.1-0.1
		c0,0,0.1-0.1,0.1-0.1c0,0,0-0.1,0.1-0.1c0,0,0-0.1,0-0.1c0,0,0-0.1,0-0.1c0-0.1,0-0.1,0-0.2s0-0.1,0-0.2c0-0.1,0-0.1,0-0.1
		c0,0,0-0.1-0.1-0.1c-0.1-0.1-0.1-0.1-0.1-0.1l-1.9-1.5c0,0,0,0,0-0.1c0,0-0.1-0.1-0.1-0.1c0,0,0,0-0.1-0.1c0-0.1-0.1-0.1-0.1-0.2
		c0-0.1-0.1-0.1-0.1-0.2c0-0.1-0.1-0.1-0.1-0.1c0,0-0.1-0.1-0.1-0.2C97.1,7.5,97,7.5,97,7.4c0,0,0-0.1,0-0.1c0-0.1,0-0.1,0-0.1
		c0.1-0.1,0.2-0.2,0.2-0.2c0,0,0,0,0.1,0c0,0,0,0,0.1,0c0,0,0.1-0.1,0.2-0.1c0.1,0,0.2-0.1,0.2-0.1c0.1,0,0.1-0.1,0.2-0.1
		c0.1,0,0.1,0,0.1,0c0,0,0.1,0,0.2,0c0.1,0,0.2,0,0.4,0c0.1,0,0.3,0,0.4,0c0.1,0,0.2,0,0.2,0c0,0,0.1,0,0.2,0c0.1,0,0.2,0,0.2,0
		c0.1,0,0.1,0,0.2,0c0.1,0,0.1,0,0.1,0c0,0,0.1-0.1,0.1-0.1c0,0,0.1-0.1,0.2-0.1c0.1-0.1,0.1-0.1,0.2-0.2c0.1-0.1,0.1-0.1,0.2-0.2
		c0,0,0.1-0.1,0.1-0.1c0,0,0-0.1,0.1-0.1c0-0.1,0-0.1,0.1-0.1c0,0,0-0.1,0.1-0.1c0.1-0.1,0.1-0.1,0.1-0.1c0,0,0.1-0.1,0.1-0.1
		c0,0,0-0.1,0-0.1c0,0,0-0.1-0.1-0.2c0,0-0.1,0-0.1-0.1c-0.1,0-0.1-0.1-0.2-0.1c0,0-0.1,0-0.1,0c-0.1,0-0.1,0-0.2,0h-0.2
		c-0.2,0-0.3,0-0.5,0c-0.2,0-0.3,0.1-0.5,0.1c0,0-0.1,0-0.2,0.1c-0.1,0-0.2,0.1-0.2,0.1c-0.3,0.1-0.6,0.2-0.9,0.3
		c-0.3,0.1-0.6,0.2-0.9,0.4c-0.1,0-0.3,0-0.5,0.1c-0.2,0.1-0.3,0.2-0.5,0.3c0,0-0.1,0.1-0.2,0.1c-0.1,0.1-0.1,0.1-0.1,0.1
		c0,0,0,0.1-0.1,0.2c0,0.1,0,0.2-0.1,0.2c0,0,0,0.1,0,0.2c0,0.1,0,0.2,0,0.3c0,0.1,0,0.2,0,0.3c0,0.1,0,0.2,0,0.2c0,0,0,0.1,0.1,0.1
		c0,0.1,0.1,0.1,0.1,0.1c0,0,0,0.1,0,0.2c0,0.1,0,0.1,0.1,0.2c0,0,0,0.1,0.1,0.2c0.1,0.1,0.1,0.1,0.1,0.2c0,0,0,0.1,0.1,0.1
		c0.1,0.1,0.1,0.1,0.1,0.1c0,0,0,0,0.1,0.1c0,0,0.1,0.1,0.1,0.1c0,0,0.1,0.1,0.1,0.1c0,0,0.1,0.1,0.1,0.1c0,0,0.1,0.1,0.2,0.1
		c0.1,0.1,0.2,0.1,0.2,0.2c0.1,0.1,0.2,0.1,0.2,0.2c0.1,0.1,0.1,0.1,0.1,0.1c0,0,0.1,0.1,0.2,0.2c0.1,0.1,0.1,0.1,0.1,0.1
		c0,0,0,0.1,0,0.1c0,0,0,0.1,0,0.1h-1.9c0,0,0,0-0.1,0.1c-0.1,0-0.1,0.1-0.1,0.1c0,0,0,0.1,0,0.1c0,0.1,0,0.1,0,0.1c0,0,0,0,0,0
		c0,0,0,0,0,0c0,0,0,0,0,0.1c0,0,0,0,0.1,0c0,0,0.1,0,0.1,0c0.1,0,0.1,0,0.2,0c0.1,0,0.2,0,0.2,0c0.1,0,0.1,0,0.2,0c0,0,0.1,0,0.2,0
		s0.2,0,0.2,0c0,0,0.1,0,0.2,0c0.1,0,0.1,0,0.2,0c0,0,0,0,0.1,0c0.1,0,0.1,0,0.2,0c0.1,0,0.1,0,0.2,0l0,0c0.1,0,0.1,0,0.1,0
		c0,0,0,0,0.1,0c0.1,0,0.1,0,0.2,0c0.1,0,0.1,0,0.2,0c0,0,0.1,0,0.1,0C98.4,11.1,98.4,11.1,98.5,11.1z"/>
	<path d="M106,9.9c-0.1,0-0.2,0-0.3,0.1c-0.1,0-0.3,0.1-0.4,0.1c-0.1,0-0.3,0.1-0.5,0.1c-0.2,0-0.3,0-0.4,0c0,0-0.1,0-0.1,0
		c-0.1,0-0.1,0-0.2,0c-0.1,0-0.1,0-0.2,0c-0.1,0-0.1,0-0.1,0c-0.2-0.1-0.4-0.3-0.4-0.5c0-0.1,0-0.2,0-0.2s0-0.1,0-0.2
		c0,0,0,0,0.1-0.1c0,0,0.1-0.1,0.1-0.1c0.1-0.1,0.2-0.2,0.3-0.3c0.1-0.1,0.2-0.1,0.2-0.2c0.1-0.1,0.2-0.2,0.2-0.2
		c0.1-0.1,0.2-0.2,0.3-0.4c0,0,0,0,0.1-0.1c0,0,0-0.1,0-0.1c0-0.1,0.1-0.2,0.1-0.3c0-0.1,0.1-0.2,0.1-0.2c0,0,0-0.1,0-0.2V6.5
		c0-0.1,0-0.2,0-0.2c0,0,0-0.1,0-0.2c0-0.1,0-0.2-0.1-0.2c0,0,0-0.1-0.1-0.2c0-0.1-0.1-0.2-0.1-0.2c0,0,0-0.1,0-0.1
		c0,0-0.1-0.1-0.1-0.2c0,0-0.1-0.1-0.1-0.1s0-0.1,0-0.1c0,0,0-0.1-0.1-0.1c0-0.1-0.1-0.1-0.1-0.1c0,0-0.1-0.1-0.1-0.2
		c-0.1-0.1-0.1-0.1-0.1-0.1c0,0,0,0-0.1,0c0,0-0.1,0-0.2-0.1c-0.1,0-0.1,0-0.2-0.1c-0.1,0-0.1,0-0.1,0c0,0,0,0-0.1,0h-0.1
		c0,0,0,0-0.1,0c0,0-0.1,0-0.2,0.1c-0.1,0-0.2,0.1-0.2,0.1c-0.2,0.2-0.4,0.5-0.6,0.7c-0.1,0.3-0.3,0.5-0.3,0.8
		c-0.1,0.3-0.1,0.6-0.2,0.9c0,0.3-0.1,0.6-0.1,1l0,0l0.2,1.4l0.1,0.1c0,0,0,0.1,0.1,0.1c0,0.1,0.1,0.1,0.1,0.1c0,0,0,0.1,0.1,0.1
		c0.1,0.1,0.1,0.1,0.2,0.2c0.1,0.1,0.2,0.2,0.2,0.3c0.1,0.1,0.1,0.1,0.2,0.2l0.2,0.2c0,0,0.1,0,0.1,0.1c0,0,0.1,0.1,0.2,0.1
		c0.1,0,0.1,0.1,0.2,0.1c0,0,0.1,0,0.1,0.1c0,0,0.1,0,0.2,0c0.1,0,0.2,0,0.3,0.1c0.1,0,0.2,0,0.3,0c0.1,0,0.2,0,0.2,0h0.9
		c0.2,0,0.4,0,0.6-0.1c0,0,0.1,0,0.2-0.1c0.1,0,0.1-0.1,0.1-0.1c0,0,0,0,0.1-0.1c0,0,0.1,0,0.1-0.1c0.1-0.3,0.1-0.5,0-0.7
		C106.3,9.9,106.2,9.9,106,9.9z M103.3,8c0,0-0.1,0-0.1,0c-0.1,0-0.1,0-0.1,0.1h-0.1c0,0,0-0.1,0-0.2c0-0.1,0-0.2,0-0.3
		c0-0.1,0-0.2,0-0.3c0-0.1,0-0.2,0-0.2c0,0,0,0,0-0.1c0,0,0-0.1,0.1-0.2c0-0.1,0-0.1,0.1-0.2c0-0.1,0-0.1,0-0.1c0,0,0.1-0.1,0.1-0.2
		c0-0.1,0.1-0.2,0.1-0.2c0.1-0.2,0.2-0.4,0.4-0.5v0c0,0,0.1,0.1,0.1,0.2c0.1,0.1,0.1,0.2,0.2,0.3c0.1,0.1,0.1,0.2,0.2,0.3
		c0.1,0.1,0.1,0.1,0.1,0.2c0,0,0.1,0.1,0.1,0.2c0,0.1,0.1,0.1,0.1,0.2c0,0,0,0,0,0.1c0,0,0,0.1,0,0.1s0,0,0,0.1c0,0,0,0,0,0.1
		c0,0-0.1,0.1-0.2,0.2c-0.1,0.1-0.2,0.2-0.2,0.2c0,0-0.1,0-0.1,0.1c-0.1,0-0.1,0.1-0.2,0.1c-0.1,0-0.1,0.1-0.2,0.1
		C103.4,8,103.3,8,103.3,8z"/>
	<path d="M107.9,9.1c0,0.1,0,0.2,0,0.3c0,0.1,0,0.1,0,0.2c0,0,0,0.1,0,0.3c0,0.1,0,0.3,0,0.4v0.1c0,0,0,0.1,0,0.1c0,0.1,0,0.1,0,0.2
		v0.3l0,0l0,0c0,0.1,0.1,0.1,0.1,0.1c0,0,0.1,0.1,0.2,0.1c0.1,0,0.1,0.1,0.1,0.1l0.9-0.3c0,0,0,0,0.1-0.1c0-0.1,0.1-0.1,0.1-0.1
		c0,0,0-0.1,0.1-0.1c0-0.1,0-0.1,0-0.1c0-0.1,0-0.2,0-0.3V9.9c0,0,0-0.1,0.1-0.1c0-0.1,0-0.1,0.1-0.1c0,0,0.1,0,0.2-0.1
		c0.1,0,0.2,0,0.2-0.1c0,0,0,0,0.1-0.1c0,0,0.1-0.1,0.1-0.1c0,0,0,0,0-0.1c0-0.1,0-0.1,0-0.1c0.2-0.3,0.4-0.5,0.5-0.6
		c0.1-0.1,0.2-0.1,0.2-0.1c0,0,0,0,0.1,0l0,0l0.1,0h0.2c0,0,0.1,0,0.1,0.1c0,0,0.1,0.1,0.2,0.2c0.1,0.1,0.1,0.1,0.1,0.1
		c0,0,0,0.1,0.1,0.1c0,0.1,0,0.1,0,0.1c0,0,0,0,0,0.1c0,0.1,0,0.1,0.1,0.2c0,0.1,0.1,0.2,0.1,0.3c0,0,0.1,0.1,0.1,0.2
		c0,0.1,0.1,0.2,0.1,0.3c0.1,0.1,0.1,0.2,0.1,0.3c0,0.1,0.1,0.2,0.1,0.2c0,0,0.1,0.1,0.1,0.2c0.1,0.1,0.1,0.1,0.1,0.2
		c0,0,0,0,0.1,0.1c0.1,0,0.1,0.1,0.1,0.1c0,0,0,0,0.1,0c0,0,0.1,0,0.1,0l0.1,0h0.1c0,0,0-0.1,0-0.2c0-0.1,0-0.2,0-0.3v-0.5l0-0.4
		l0-0.4c0-0.1-0.1-0.2-0.2-0.4c-0.1-0.1-0.1-0.3-0.1-0.4c0,0,0-0.1-0.1-0.2c0-0.1-0.1-0.2-0.1-0.2c0,0,0,0,0-0.1
		c0-0.1,0-0.1-0.1-0.2c0-0.1,0-0.1-0.1-0.2c0-0.1,0-0.1,0-0.1c0,0,0-0.1-0.1-0.1c0-0.1-0.1-0.1-0.1-0.1c0,0,0,0,0-0.1
		c0,0,0-0.1-0.1-0.1c0,0,0-0.1-0.1-0.1c0,0,0-0.1,0-0.1c0,0,0-0.1-0.1-0.1c0-0.1-0.1-0.1-0.1-0.2c0-0.1-0.1-0.1-0.1-0.2
		c0-0.1-0.1-0.1-0.1-0.1c0,0,0,0-0.1-0.1c0,0-0.1,0-0.1,0h-0.1l-0.1,0c0,0,0,0-0.1,0.1c0,0-0.1,0.1-0.1,0.1c0,0-0.1,0.1-0.1,0.1
		L111,6.6c0,0,0,0.1-0.1,0.1c0,0.1-0.1,0.1-0.1,0.2c0,0,0,0,0,0.1c0,0,0,0.1-0.1,0.1c0,0,0,0.1-0.1,0.1c0,0,0,0.1,0,0.1
		c0,0,0,0.1,0,0.1c0,0,0,0.1-0.1,0.1c-0.1,0-0.1,0.1-0.2,0.1c-0.1,0.1-0.1,0.1-0.1,0.1c0,0-0.1,0.1-0.2,0.1c-0.1,0-0.1,0.1-0.1,0.1
		c0,0,0,0.1-0.1,0.1c0,0.1-0.1,0.1-0.1,0.1l-0.1,0.1c0,0-0.1,0-0.1,0c-0.1,0-0.1,0-0.1,0c0,0,0,0,0-0.1c0,0,0-0.1,0-0.1V7.6
		c0,0,0-0.1,0.1-0.1c0-0.1,0.1-0.1,0-0.1c0,0,0,0,0-0.1c0,0,0-0.1,0-0.2c0-0.1,0-0.1,0-0.2c0-0.1,0-0.2-0.1-0.2c0,0,0-0.1-0.1-0.1
		c0-0.1-0.1-0.1-0.1-0.1c0,0-0.1-0.1-0.1-0.1c0,0-0.1-0.1-0.1-0.1c0,0-0.1,0-0.2,0c-0.1,0-0.1,0-0.2,0l-0.1,0l-0.2,0.1
		c0,0-0.1,0-0.1,0.1s-0.1,0.1-0.1,0.1c0,0-0.1,0.1-0.1,0.2c0,0.1-0.1,0.1-0.1,0.2V7c0,0.1,0,0.2,0,0.4c0,0.2,0,0.2,0,0.3
		c0,0,0,0.1,0,0.2c0,0.1,0,0.2,0,0.3c0,0.1,0,0.2,0,0.3c0,0.1,0,0.2,0,0.2c0,0,0,0.1,0,0.2C107.9,8.9,107.9,9,107.9,9.1z"/>
	<path d="M113.9,6.1c0,0,0,0.1,0.1,0.2s0.1,0.2,0.1,0.2c0,0,0,0,0,0.1c0,0,0,0,0,0h0.5c0,0,0.1,0,0.1,0c0.1,0,0.1,0,0.1-0.1
		c0,0,0.1,0,0.1-0.1c0-0.1,0.1-0.1,0.1-0.1c0,0,0.1,0,0.1,0c0,0,0.1,0,0.1,0l0.1,3.3c0,0,0,0.1,0,0.1c0,0.1,0,0.2,0.1,0.3
		c0,0.1,0.1,0.2,0.1,0.4c0,0.1,0.1,0.2,0.1,0.3c0,0.1,0.1,0.1,0.1,0.2c0,0.1,0,0.1,0.1,0.2c0,0,0,0.1,0.1,0.1c0,0,0,0.1,0.1,0.1
		c0,0,0.1,0,0.1,0.1c0.1,0,0.1,0,0.1,0h0.3c0,0,0,0,0.1,0c0,0,0.1,0,0.1,0c0,0,0,0,0.1,0c0.1,0,0.1,0,0.1,0c0,0,0.1,0,0.2,0l0,0
		l-0.3-1l-0.2-0.4l-0.1-3.1c0,0,0-0.1,0-0.2c0-0.1,0-0.2,0-0.2c0,0,0,0,0-0.1c0,0,0-0.1,0-0.1c0-0.1,0-0.1,0-0.1c0,0,0-0.1,0-0.1
		c0,0,0,0,0.1,0c0,0,0.1,0,0.1,0c0,0,0.1,0,0.1,0c0,0,0.1,0,0.1,0l0.1-0.1c0,0,0.1,0,0.3,0c0.1,0,0.3,0,0.4,0c0.2,0,0.3,0,0.4,0
		c0.1,0,0.2,0,0.3,0c0,0,0.1,0,0.1,0c0.1,0,0.1,0,0.2,0c0.1,0,0.1,0,0.2,0c0.1,0,0.1,0,0.1,0h0.4c0.1,0,0.2,0,0.3,0
		c0.1,0,0.2,0,0.3,0c0.1,0,0.1,0,0.2,0V5.8c0,0-0.1,0-0.3-0.1c-0.1,0-0.2-0.1-0.3-0.1c0,0,0,0-0.1-0.1c0-0.1,0-0.1,0-0.1
		c0,0,0,0,0,0c0,0,0,0-0.1,0c0,0,0,0-0.1,0c0,0-0.1,0-0.1,0c-0.3-0.2-0.7-0.3-1.1-0.4c0,0-0.1,0-0.1,0c-0.1,0-0.1,0-0.2,0
		c-0.1,0-0.1,0-0.2,0c-0.1,0-0.1,0-0.1,0c0,0-0.1,0-0.2,0c-0.1,0-0.2,0-0.2-0.1c-0.1,0-0.1,0-0.2-0.1c-0.1,0-0.1,0-0.1,0
		c-0.1,0-0.1,0-0.1-0.1c0,0,0-0.1,0-0.1c0-0.1,0-0.1,0-0.2c0-0.1,0-0.1,0-0.2c0-0.1,0-0.1,0-0.1c0,0,0-0.1,0-0.1
		c0-0.1,0-0.1,0.1-0.1c0,0,0,0,0-0.1c0,0,0-0.1,0-0.1c0,0,0-0.1,0-0.1c0,0,0-0.1,0-0.1c0,0,0-0.1,0-0.2c0-0.1,0-0.2,0-0.2
		c0,0,0-0.1,0-0.2c0-0.1,0-0.2,0-0.3c0,0,0-0.1,0-0.2c0-0.1,0-0.2,0-0.2c0,0-0.1-0.1-0.1-0.1c0,0-0.1,0-0.1-0.1c0,0-0.1,0-0.1-0.1
		c-0.1,0-0.1,0-0.1,0h-0.2c-0.2,0-0.4,0.1-0.4,0.3c0,0,0,0.1-0.1,0.1c0,0,0,0.1,0,0.1c0,0,0,0.1,0,0.1c0,0.1,0,0.1-0.1,0.2
		c0,0.1,0,0.1-0.1,0.2c0,0.1,0,0.1,0,0.1c0,0,0,0.1,0,0.2c0,0.1,0,0.2-0.1,0.3c0,0.1,0,0.2-0.1,0.3c0,0.1,0,0.2,0,0.2
		c0,0,0,0.1,0,0.1c0,0.1,0,0.1,0,0.2c0,0.1,0,0.2,0,0.2c0,0.1,0,0.1,0,0.1c0,0.1,0,0.1-0.1,0.2c-0.1,0.1-0.1,0.1-0.2,0.1
		c0,0,0,0-0.1,0c0,0-0.1,0-0.1,0c-0.1,0-0.1,0-0.1,0c0,0-0.1,0-0.1,0c0,0-0.1,0-0.2,0.1c-0.1,0-0.1,0.1-0.2,0.1l-0.8,0.8
		c0,0,0,0,0,0.1c0,0,0,0.1,0,0.1S113.9,5.9,113.9,6.1C113.9,6,113.9,6.1,113.9,6.1z"/>
	<path d="M124.8,7.7c0,0-0.1-0.1-0.1-0.2c-0.1-0.1-0.1-0.2-0.1-0.2c0,0-0.1-0.1-0.2-0.2c-0.1-0.1-0.1-0.1-0.2-0.2c0,0,0,0-0.1,0
		c-0.1,0-0.1,0-0.2-0.1c0,0-0.1,0-0.2-0.1c-0.1,0-0.1,0-0.2,0c-0.1,0-0.2,0-0.3,0c-0.1,0-0.2,0-0.4,0c-0.1,0-0.2,0-0.3,0
		c-0.1,0-0.2,0-0.2,0c0,0-0.1,0-0.1,0c0,0-0.1,0-0.2,0c-0.1,0-0.1,0-0.2,0c0,0-0.1,0-0.1,0c0,0-0.1,0-0.1,0.1v0.2
		c0,0,0.1,0.1,0.1,0.1s0.1,0.1,0.1,0.1c0,0,0.1,0,0.2,0c0.1,0,0.2,0,0.3,0.1c0.1,0,0.2,0,0.3,0.1c0.1,0,0.1,0,0.2,0
		c0,0,0.1,0.1,0.2,0.1c0.1,0,0.2,0.1,0.2,0.1c0,0,0.1,0.1,0.2,0.1c0.1,0.1,0.1,0.1,0.2,0.2c0.1,0.1,0.1,0.1,0.1,0.2
		c0,0,0,0.1,0.1,0.1v0.5c0,0,0,0.1,0,0.1c0,0.1,0,0.1-0.1,0.1c0,0,0,0-0.1,0.1c0,0.1-0.1,0.1-0.2,0.2c-0.1,0.1-0.1,0.2-0.2,0.2
		c-0.1,0.1-0.1,0.1-0.1,0.2l-0.1,0.1c0,0-0.1,0-0.1,0.1c0,0-0.1,0-0.1,0c0,0-0.1,0-0.2,0c-0.1,0-0.2,0-0.2,0c0,0-0.1,0-0.2,0
		c-0.1,0-0.2,0-0.2,0c0,0-0.1,0-0.2-0.1c-0.1,0-0.2-0.1-0.3-0.1c0,0-0.1-0.1-0.1-0.1c-0.1,0-0.1-0.1-0.1-0.1L121,9.5
		c0,0-0.1-0.1-0.1-0.2c0-0.1-0.1-0.2-0.1-0.2c0,0,0-0.1-0.1-0.1c0-0.1,0-0.1,0-0.1V8.5c0,0,0-0.1,0-0.2c0-0.1,0-0.2,0-0.2
		c0,0,0-0.1,0-0.2c0-0.1,0-0.2,0-0.2c0-0.1,0-0.2,0-0.2c0-0.1,0-0.1,0-0.2c0,0-0.1-0.1-0.1-0.1c-0.1-0.1-0.1-0.1-0.1-0.1
		c0,0-0.1,0-0.1-0.1c0,0-0.1,0-0.1,0c0,0-0.1,0-0.1,0c0,0,0,0-0.1,0c0,0-0.1,0-0.2,0.1c-0.1,0-0.2,0.1-0.2,0.1c0,0-0.1,0.1-0.1,0.1
		c0,0.1-0.1,0.1-0.1,0.2c0,0.1,0,0.2,0,0.3c0,0.1,0,0.2,0,0.3v1.3c0,0,0,0.1,0.1,0.2c0,0.1,0.1,0.2,0.1,0.2l0.3,0.3
		c0.1,0.1,0.1,0.2,0.2,0.3c0.1,0.1,0.2,0.2,0.3,0.3c0.1,0.1,0.2,0.2,0.3,0.2c0.1,0.1,0.2,0.1,0.2,0.1c0,0,0.1,0,0.2,0
		c0.1,0,0.2,0,0.2,0l0,0l1.5,0.3h0.3c0,0,0.1,0,0.2,0c0.1,0,0.2,0,0.2,0c0,0,0.1-0.1,0.2-0.1c0.1,0,0.2-0.1,0.2-0.1
		c0,0,0.1-0.1,0.2-0.1c0.1-0.1,0.2-0.1,0.2-0.1c0,0,0.1-0.1,0.1-0.2c0-0.1,0.1-0.2,0.1-0.2c0.1-0.1,0.1-0.2,0.2-0.3
		c0.1-0.1,0.1-0.2,0.1-0.2c0.1-0.1,0.1-0.2,0.2-0.3c0-0.1,0-0.2,0.1-0.2c0-0.1,0-0.2,0-0.3c0-0.1,0-0.3,0.1-0.5V7.9
		C124.8,7.9,124.8,7.9,124.8,7.7C124.8,7.8,124.8,7.8,124.8,7.7z"/>
	<path d="M127.3,3.3c0,0.1,0,0.1,0,0.2c0,0.1,0,0.1,0,0.1c0,0,0,0.1,0.1,0.2c0,0.1,0,0.1,0,0.1c0,0,0,0.1,0.1,0.1
		c0,0.1,0.1,0.1,0.1,0.1c0,0,0.1,0,0.2,0.1c0.1,0,0.2,0.1,0.2,0.1h0.1c0,0,0.1-0.1,0.1-0.1c0.1-0.1,0.1-0.1,0.1-0.1
		c0,0,0-0.1,0.1-0.1c0-0.1,0.1-0.1,0.1-0.1c0,0,0-0.1,0.1-0.1c0-0.1,0-0.1,0-0.1V3.2c0,0,0-0.1,0-0.2c0-0.1-0.1-0.3-0.1-0.4
		c0-0.1,0-0.2-0.1-0.3c0-0.1-0.1-0.1-0.1-0.2c0,0,0,0-0.1-0.1c0,0-0.1-0.1-0.1-0.1c0,0,0,0-0.1-0.1c0,0-0.1,0-0.1,0h-0.4
		c0,0,0,0-0.1,0c0,0-0.1,0-0.1,0.1c0,0-0.1,0-0.1,0.1c0,0-0.1,0.1-0.1,0.1v0.5v0V3c0,0,0,0,0,0.1C127.2,3.1,127.2,3.2,127.3,3.3z"/>
	<path d="M126.1,8.9c0,0.1,0,0.1,0,0.2c0,0.1,0,0.1,0,0.1l0,0.1h0c0,0.2,0.1,0.3,0.1,0.4c0,0.1,0,0.2,0,0.3c0,0.1,0,0.2,0.1,0.3
		c0,0.1,0.1,0.2,0.2,0.4c0.1,0,0.1,0.1,0.2,0.2c0.1,0.1,0.1,0.1,0.2,0.1l0.1,0l0.1,0c0,0,0.1,0,0.2,0c0.1,0,0.2,0,0.2,0
		c0,0,0,0,0.1-0.1c0,0,0.1-0.1,0-0.1c0,0,0-0.1,0-0.1c0-0.1,0-0.1,0-0.1c0,0,0,0,0-0.1c0,0,0-0.1,0-0.1c0,0,0-0.1,0-0.1
		c0,0,0-0.1,0-0.1c0,0,0-0.1,0-0.2c0-0.1,0-0.2,0-0.3s0-0.2,0-0.3c0-0.1,0-0.1,0-0.2l-0.1-0.2l-0.1-0.3c0,0,0-0.1,0-0.1V8.2
		c0,0,0-0.1,0-0.1c0-0.1,0-0.1,0-0.1c0,0,0-0.1,0-0.1c0,0,0-0.1,0-0.1V7.6c0,0,0-0.1,0-0.2c0-0.1,0-0.1,0-0.2V7.2l-0.1-0.3l-0.1-0.3
		c0,0,0,0,0-0.1c0,0-0.1-0.1-0.1-0.1c0,0-0.1-0.1-0.1-0.1c0,0-0.1,0-0.1,0c0,0,0,0-0.1,0l-0.1,0l-0.1,0c0,0-0.1,0-0.1,0
		c0,0,0,0-0.1,0.1c0,0.1-0.1,0.1-0.1,0.1c0,0,0,0,0,0.1c0,0.1,0,0.1,0,0.1c0,0,0,0,0,0.1c0,0,0,0.1-0.1,0.2c0,0.1,0,0.1-0.1,0.2
		c0,0.1,0,0.1,0,0.1c0,0,0,0.1-0.1,0.2c0,0.1,0,0.2,0,0.2c0,0,0,0.1,0,0.1c0,0.1,0,0.1,0,0.2c0,0.1,0,0.1,0,0.2c0,0.1,0,0.1,0,0.1
		c0,0,0,0.1,0,0.1c0,0.1,0,0.1,0,0.1V8.9z"/>
	<path d="M129.6,11.3c0,0,0.1,0,0.1,0c0,0,0.1,0,0.1,0c0,0,0,0,0-0.1c0,0,0-0.1,0-0.1l0-0.1l0,0c0,0,0,0,0-0.1c0,0,0-0.1,0-0.1
		c0.4-1,0.5-2,0.4-3c0.1-0.2,0.1-0.4,0.2-0.6c0.1-0.1,0.1-0.2,0.2-0.3c0.1-0.1,0.1-0.1,0.2-0.2c0,0,0.1-0.1,0.2-0.2l0.1,0
		c0.1,0,0.2-0.1,0.3-0.1c0.1,0,0.3-0.1,0.4-0.1c0.1,0,0.3-0.1,0.5-0.1l0.1,0l0.2-0.1l0.2-0.1l0.1,0c0,0,0,0,0.1-0.1
		c0.1-0.1,0.1-0.1,0.2-0.2c0,0,0,0,0,0c0,0,0,0,0,0l-0.1-0.3l-0.1-0.3c0,0,0,0-0.1,0c0,0-0.1,0-0.1,0c0,0,0,0-0.1-0.1
		c0,0-0.1-0.1-0.1-0.1c0,0-0.1,0-0.2-0.1c-0.1,0-0.2-0.1-0.2-0.1h-0.3c-0.1,0-0.2,0-0.2,0c-0.1,0-0.1,0-0.1,0
		c-0.3,0.1-0.6,0.1-0.7,0.1c-0.2,0-0.4,0.1-0.5,0.1c-0.2,0-0.2,0-0.3,0c0,0-0.1,0-0.2,0.1c-0.1,0-0.1,0-0.1,0c0,0-0.1,0.1-0.1,0.1
		c-0.1,0-0.1,0.1-0.1,0.1l-0.3,0.4c0,0,0,0,0,0.1c0,0,0,0.1,0,0.1V6c0,0,0,0.1,0,0.2c0,0.1,0,0.1,0,0.2c0,0,0,0.1,0,0.1
		c0,0,0,0.1-0.1,0.2s0,0.2-0.1,0.3c0,0.1,0,0.2-0.1,0.3c0,0.1,0,0.1-0.1,0.1c0,0-0.1,0.2-0.1,0.3c0,0.2-0.1,0.3-0.1,0.5
		c0,0.2-0.1,0.4-0.1,0.7c0,0.2,0,0.5-0.1,0.7c0,0.2,0,0.4-0.1,0.6c0,0.2,0,0.3,0,0.4l0,0C129.1,11.1,129.4,11.3,129.6,11.3z"/>
	<path d="M72.7,22.5c-0.5-0.6-1.4-1.2-2.5-1.7c-1.1-0.5-2.6-0.7-4.5-0.7c-1.9,0-3.4,0.2-4.5,0.7c-1.1,0.5-1.9,1-2.5,1.7
		c-0.5,0.6-0.9,1.3-1,1.9c-0.1,0.7-0.2,1.2-0.2,1.5v8c0,1.2,0.4,2.2,1.1,3.3c0.7,1,2,1.8,3.9,2.4c0.1,0,0.2,0,0.3,0.1l3.6,1.2
		c0.2,0.1,0.5,0.2,0.8,0.3c0.3,0.1,0.5,0.2,0.7,0.2c0.8,0.3,1.4,0.7,1.6,1.2c0.2,0.5,0.3,1,0.3,1.4v5.2c0,0.3,0,0.6-0.1,0.9
		c-0.1,0.3-0.3,0.6-0.6,0.9c-0.3,0.3-0.7,0.5-1.3,0.7c-0.5,0.2-1.3,0.3-2.2,0.3c-0.9,0-1.6-0.1-2.1-0.3c-0.5-0.2-0.9-0.5-1.2-0.8
		c-0.3-0.3-0.5-0.6-0.6-1c-0.1-0.3-0.1-0.6-0.1-0.9v-0.4h-4.1v1.2c0,0.4,0.1,0.9,0.2,1.5c0.1,0.7,0.5,1.3,1,1.9
		c0.5,0.6,1.4,1.2,2.5,1.7c1.1,0.5,2.6,0.7,4.5,0.7c1.9,0,3.4-0.2,4.5-0.7c1.1-0.5,1.9-1,2.5-1.7c0.5-0.6,0.9-1.3,1-1.9
		c0.1-0.6,0.2-1.2,0.2-1.5v-6.6c0-1.1-0.3-2.1-0.9-3c-0.3-0.5-0.7-0.9-1.1-1.3c-0.4-0.4-0.9-0.6-1.5-0.8c-0.5-0.2-1-0.4-1.6-0.6
		c-0.6-0.3-1.3-0.5-2.1-0.8c-0.8-0.3-1.4-0.5-2-0.7c-0.2-0.1-0.4-0.1-0.6-0.2c-0.2-0.1-0.4-0.1-0.5-0.2c-0.8-0.3-1.4-0.7-1.6-1.2
		c-0.2-0.5-0.4-1-0.4-1.4v-6.5c0-0.3,0-0.6,0.1-0.9c0.1-0.3,0.3-0.7,0.6-1c0.3-0.3,0.7-0.6,1.2-0.8c0.5-0.2,1.2-0.3,2.1-0.3
		c0.9,0,1.7,0.1,2.2,0.3c0.5,0.2,1,0.5,1.3,0.8c0.3,0.3,0.5,0.6,0.6,0.9c0.1,0.3,0.1,0.7,0.1,0.9v0.5h4.1v-1.3
		c0-0.4-0.1-0.9-0.2-1.5C73.6,23.8,73.2,23.1,72.7,22.5z"/>
	<path d="M81.7,21c-0.7,0.3-1.2,0.8-1.7,1.3c-0.5,0.5-0.8,1.1-1,1.8c-0.2,0.6-0.3,1.3-0.3,1.9v24c0,0.6,0.1,1.2,0.3,1.9
		c0.2,0.6,0.6,1.2,1,1.8c0.5,0.5,1,1,1.7,1.3c0.7,0.3,1.5,0.5,2.4,0.5h9.5V52h-8.1c-0.8,0-1.5-0.3-2-0.8c-0.5-0.6-0.7-1.2-0.7-2
		v-9.3h8.7v-3.8h-8.7v-9.3c0-0.8,0.2-1.5,0.7-2c0.5-0.6,1.2-0.8,2-0.8h8.1v-3.4h-9.5C83.1,20.5,82.3,20.7,81.7,21z"/>
	<rect x="98.3" y="20.5" width="4.1" height="34.9"/>
	<path d="M111.9,51.2c-0.5-0.5-0.7-1.2-0.7-2V20.5h-4.1V50c0,0.6,0.1,1.2,0.3,1.9c0.2,0.6,0.6,1.2,1,1.8c0.5,0.5,1,1,1.7,1.3
		c0.7,0.3,1.5,0.5,2.4,0.5h8.8V52h-7.5C113,52,112.4,51.7,111.9,51.2z"/>
	<path d="M130.9,51.2c-0.5-0.5-0.7-1.2-0.7-2V20.5h-4.1V50c0,0.6,0.1,1.2,0.3,1.9c0.2,0.6,0.6,1.2,1,1.8c0.5,0.5,1,1,1.7,1.3
		c0.7,0.3,1.5,0.5,2.4,0.5h8.8V52h-7.5C132.1,52,131.4,51.7,130.9,51.2z"/>
	<path d="M148.2,21c-0.7,0.3-1.2,0.8-1.7,1.3c-0.5,0.5-0.8,1.1-1,1.8c-0.2,0.6-0.3,1.3-0.3,1.9v24c0,0.6,0.1,1.2,0.3,1.9
		c0.2,0.6,0.6,1.2,1,1.8c0.5,0.5,1,1,1.7,1.3c0.7,0.3,1.5,0.5,2.4,0.5h9.5V52h-8.1c-0.8,0-1.5-0.3-2-0.8c-0.5-0.6-0.7-1.2-0.7-2
		v-9.3h8.7v-3.8h-8.7v-9.3c0-0.8,0.2-1.5,0.7-2c0.5-0.6,1.2-0.8,2-0.8h8.1v-3.4h-9.5C149.6,20.5,148.8,20.7,148.2,21z"/>
	<path d="M177.5,39.1c1.4-0.5,2.3-1.3,2.9-2.2c0.6-0.9,0.8-1.9,0.8-2.9v-8c0-0.4-0.1-0.9-0.2-1.5c-0.1-0.7-0.5-1.3-1-1.9
		c-0.5-0.6-1.4-1.2-2.5-1.7c-1.1-0.5-2.6-0.7-4.5-0.7s-3.4,0.2-4.5,0.7c-1.1,0.5-1.9,1-2.5,1.7c-0.5,0.6-0.9,1.3-1,1.9
		c-0.1,0.7-0.2,1.2-0.2,1.5v29.5h4.1V43.7c0-0.4,0.2-0.8,0.4-1.1c0.2-0.3,0.5-0.5,0.8-0.7c0.4-0.2,0.7-0.4,1.1-0.5l0.7-0.2
		c0.2-0.1,0.5-0.2,0.8-0.3c0.3-0.1,0.6-0.2,1-0.4l5.2,14.9h4.3L177.5,39.1z M177.1,33.3c0,0.4-0.1,0.8-0.4,1.3
		c-0.2,0.5-0.8,0.9-1.6,1.2c-0.2,0.1-0.3,0.1-0.5,0.2c-0.2,0.1-0.4,0.1-0.6,0.2c-0.4,0.1-0.8,0.3-1.3,0.5c-0.5,0.2-1,0.3-1.5,0.5
		c-0.5,0.2-0.9,0.3-1.4,0.5c-0.4,0.2-0.8,0.3-1.1,0.4V26.8c0-0.3,0-0.6,0.1-0.9c0.1-0.3,0.3-0.7,0.6-1c0.3-0.3,0.7-0.6,1.2-0.8
		c0.5-0.2,1.2-0.3,2.1-0.3c0.9,0,1.7,0.1,2.2,0.3c0.5,0.2,1,0.5,1.3,0.7c0.3,0.3,0.5,0.6,0.6,0.9c0.1,0.3,0.1,0.6,0.1,0.9V33.3z"/>
	<path d="M48.5,24c0-0.1,0.1-0.8,0-0.8v-7.3c0-4-3.7-3.8-3.7-3.8H23.9c0,0-22.1,0.7-23.6,23.7c0.3,14.8,10.3,20.7,15.4,22.7l0,0
		c0.6,0.3,1.5,0.7,2.5,0.9c0,0,0,0,0,0c0,0,0,0,0,0c15,4.3,30.3-8.3,30.3-21c0-0.5,0-1,0-1.5L48.5,24C48.6,24,48.5,24,48.5,24
		L48.5,24z M9.4,52.9V39.7c0-0.2,0-0.3,0-0.5c0-0.2,0-0.3,0-0.5c0.3-4.9,4.4-8.8,9.4-8.8s9.4,4.2,9.4,9.4c0,5.2-4.2,9.4-9.4,9.4
		c-0.3,0-0.6,0-0.9,0v9.4C11.3,55.9,9.4,52.9,9.4,52.9z"/>
</g>
</svg>
